<svg width="214" height="39" viewBox="0 0 214 39" fill="none" xmlns="http://www.w3.org/2000/svg">
<path d="M57.392 11.9627C56.0037 11.2014 54.4079 10.8242 52.5974 10.8242C51.0373 10.8242 49.6562 11.1525 48.4397 11.816C47.6954 12.2211 47.0657 12.7659 46.5147 13.4224V11.0268H42.4357V35.4302H46.7293V26.7067C47.2517 27.2934 47.8529 27.7823 48.5327 28.1525C49.7564 28.823 51.1161 29.1582 52.6045 29.1582C54.415 29.1582 56.0108 28.7811 57.3991 28.0198C58.7874 27.2585 59.8823 26.1899 60.6981 24.8209C61.5139 23.445 61.9147 21.8316 61.9147 19.9738C61.9147 18.1159 61.5068 16.5095 60.6981 15.1475C59.8752 13.7856 58.7803 12.724 57.392 11.9627ZM56.8266 22.9631C56.3472 23.8152 55.696 24.4577 54.8873 24.9047C54.0715 25.3517 53.1555 25.5752 52.1251 25.5752C51.0946 25.5752 50.1643 25.3517 49.3413 24.9047C48.5184 24.4577 47.8672 23.8082 47.3806 22.9631C46.9011 22.111 46.6578 21.1192 46.6578 19.9807C46.6578 18.8213 46.9011 17.8156 47.3806 16.9775C47.86 16.1393 48.5112 15.4968 49.3413 15.0498C50.1643 14.6028 51.0946 14.3793 52.1251 14.3793C53.1555 14.3793 54.0787 14.6028 54.8873 15.0498C55.7031 15.4968 56.3472 16.1393 56.8266 16.9775C57.3061 17.8156 57.5494 18.8143 57.5494 19.9807C57.5494 21.1192 57.3061 22.111 56.8266 22.9631Z" fill="#0A71C8"/>
<path d="M77.3647 11.9627C75.9693 11.2014 74.3735 10.8242 72.5916 10.8242C70.7596 10.8242 69.128 11.2153 67.6968 11.9976C66.2656 12.7798 65.1421 13.8554 64.3334 15.2314C63.5176 16.6073 63.1169 18.1858 63.1169 19.9738C63.1169 21.7408 63.5319 23.3123 64.3692 24.7022C65.2065 26.0851 66.3872 27.1747 67.9043 27.9709C69.4286 28.7671 71.2105 29.1582 73.2428 29.1582C74.8458 29.1582 76.2699 28.9068 77.5222 28.4039C78.7673 27.901 79.805 27.1816 80.6279 26.2387L78.3237 23.6545C77.6796 24.325 76.9497 24.8139 76.1267 25.1282C75.3038 25.4425 74.3735 25.5962 73.343 25.5962C72.1551 25.5962 71.096 25.3727 70.18 24.9257C69.264 24.4787 68.5555 23.8431 68.0475 23.012C67.7326 22.4951 67.5251 21.9224 67.4106 21.3008H81.7872C81.8087 21.0982 81.8302 20.8887 81.8373 20.6652C81.8516 20.4417 81.8516 20.2392 81.8516 20.0646C81.8516 18.1858 81.4509 16.5584 80.6494 15.1685C79.8622 13.7996 78.7602 12.724 77.3647 11.9627ZM67.9687 16.7051C68.4124 15.9088 69.035 15.2942 69.8222 14.8472C70.6094 14.4002 71.5325 14.1767 72.5844 14.1767C73.6149 14.1767 74.5238 14.4002 75.3181 14.8472C76.1053 15.2942 76.735 15.9088 77.193 16.6911C77.515 17.2429 77.7154 17.8575 77.7941 18.535H67.3748C67.475 17.8645 67.6682 17.2498 67.9687 16.7051Z" fill="#0A71C8"/>
<path d="M98.9548 11.6623C97.7955 11.1036 96.4859 10.8242 95.0189 10.8242C93.4159 10.8242 91.999 11.1315 90.7753 11.7462C89.9452 12.1652 89.2582 12.71 88.7 13.3665V11.0268H84.6139V28.9277H88.9076V19.876C88.9076 18.6677 89.1223 17.6689 89.5445 16.8727C89.9667 16.0765 90.5678 15.4828 91.3478 15.0777C92.1278 14.6726 93.0223 14.4771 94.0242 14.4771C95.3982 14.4771 96.4716 14.8682 97.2373 15.6504C98.003 16.4327 98.3894 17.62 98.3894 19.2055V28.9277H102.683V18.6677C102.683 16.8587 102.354 15.378 101.688 14.2256C101.023 13.0732 100.114 12.2211 98.9548 11.6623Z" fill="#0A71C8"/>
<path d="M111.063 11.0269H106.769V28.9278H111.063V11.0269Z" fill="#0A71C8"/>
<path d="M108.93 3.04395C108.129 3.04395 107.471 3.28141 106.955 3.76334C106.44 4.24526 106.182 4.83893 106.182 5.55832C106.182 6.24978 106.44 6.84345 106.955 7.33236C107.471 7.82126 108.129 8.0727 108.93 8.0727C109.753 8.0727 110.419 7.82126 110.92 7.31839C111.421 6.81551 111.678 6.1939 111.678 5.46054C111.678 4.76909 111.421 4.18938 110.906 3.7354C110.39 3.27443 109.732 3.04395 108.93 3.04395Z" fill="#0A71C8"/>
<path d="M128.066 11.9627C126.67 11.2014 125.075 10.8242 123.293 10.8242C121.461 10.8242 119.829 11.2153 118.398 11.9976C116.967 12.7798 115.843 13.8554 115.035 15.2314C114.219 16.6073 113.818 18.1858 113.818 19.9738C113.818 21.7408 114.233 23.3123 115.07 24.7022C115.908 26.0851 117.088 27.1747 118.606 27.9709C120.13 28.7671 121.912 29.1582 123.944 29.1582C125.547 29.1582 126.971 28.9068 128.223 28.4039C129.469 27.901 130.506 27.1816 131.329 26.2387L129.025 23.6545C128.381 24.325 127.651 24.8139 126.828 25.1282C126.005 25.4425 125.075 25.5962 124.044 25.5962C122.856 25.5962 121.797 25.3727 120.881 24.9257C119.965 24.4787 119.257 23.8431 118.749 23.012C118.434 22.4951 118.226 21.9224 118.112 21.3008H132.488C132.51 21.0982 132.531 20.8887 132.538 20.6652C132.553 20.4417 132.553 20.2392 132.553 20.0646C132.553 18.1858 132.152 16.5584 131.351 15.1685C130.563 13.7996 129.461 12.724 128.066 11.9627ZM118.67 16.7051C119.114 15.9088 119.736 15.2942 120.523 14.8472C121.311 14.4002 122.234 14.1767 123.286 14.1767C124.316 14.1767 125.225 14.4002 126.019 14.8472C126.806 15.2942 127.436 15.9088 127.894 16.6911C128.216 17.2429 128.417 17.8575 128.495 18.535H118.076C118.176 17.8645 118.369 17.2498 118.67 16.7051Z" fill="#0A71C8"/>
<path d="M139.609 4.0498H135.315V28.9282H139.609V4.0498Z" fill="#0A71C8"/>
<path d="M152.175 25.7082C151.373 25.7082 150.751 25.4707 150.3 25.0028C149.856 24.5348 149.627 23.8713 149.627 23.0262V14.5122H154.536V11.1597H149.627V7.06689H145.334V11.1597H142.314V14.5122H145.334V23.131C145.334 25.1215 145.885 26.6232 146.98 27.6429C148.082 28.6626 149.634 29.1655 151.652 29.1655C152.432 29.1655 153.184 29.0677 153.921 28.8651C154.651 28.6626 155.273 28.3623 155.774 27.9572L154.572 24.9748C153.942 25.4638 153.141 25.7082 152.175 25.7082Z" fill="#4B4B4B"/>
<path d="M170.072 11.9627C168.677 11.2014 167.081 10.8242 165.299 10.8242C163.467 10.8242 161.836 11.2153 160.405 11.9976C158.973 12.7798 157.85 13.8554 157.041 15.2314C156.225 16.6073 155.825 18.1858 155.825 19.9738C155.825 21.7408 156.24 23.3123 157.077 24.7022C157.914 26.0851 159.095 27.1747 160.612 27.9709C162.136 28.7671 163.918 29.1582 165.951 29.1582C167.553 29.1582 168.978 28.9068 170.23 28.4039C171.475 27.901 172.513 27.1816 173.336 26.2387L171.031 23.6545C170.387 24.325 169.657 24.8139 168.834 25.1282C168.011 25.4425 167.081 25.5962 166.051 25.5962C164.863 25.5962 163.804 25.3727 162.888 24.9257C161.972 24.4787 161.263 23.8431 160.755 23.012C160.44 22.4951 160.233 21.9224 160.118 21.3008H174.495C174.516 21.0982 174.538 20.8887 174.545 20.6652C174.559 20.4417 174.559 20.2392 174.559 20.0646C174.559 18.1858 174.159 16.5584 173.357 15.1685C172.57 13.7996 171.468 12.724 170.072 11.9627ZM160.684 16.7051C161.127 15.9088 161.75 15.2942 162.537 14.8472C163.324 14.4002 164.247 14.1767 165.299 14.1767C166.33 14.1767 167.239 14.4002 168.033 14.8472C168.82 15.2942 169.45 15.9088 169.908 16.6911C170.23 17.2429 170.43 17.8575 170.509 18.535H160.082C160.183 17.8645 160.376 17.2498 160.684 16.7051Z" fill="#4B4B4B"/>
<path d="M182.853 15.0498C183.698 14.6028 184.649 14.3793 185.701 14.3793C186.617 14.3793 187.469 14.5818 188.263 14.9799C189.05 15.385 189.723 16.0066 190.274 16.8587L193.573 14.9799C192.865 13.618 191.827 12.5843 190.467 11.8789C189.108 11.1734 187.533 10.8242 185.744 10.8242C183.819 10.8242 182.109 11.2153 180.606 11.9976C179.103 12.7798 177.93 13.8554 177.085 15.2314C176.241 16.6073 175.812 18.1858 175.812 19.9738C175.812 21.7408 176.234 23.3123 177.085 24.7022C177.93 26.0851 179.103 27.1747 180.606 27.9709C182.109 28.7671 183.819 29.1582 185.744 29.1582C187.533 29.1582 189.108 28.795 190.467 28.0687C191.827 27.3423 192.865 26.3086 193.573 24.9676L190.274 23.0888C189.723 23.9409 189.058 24.5625 188.263 24.9676C187.476 25.3727 186.617 25.5682 185.701 25.5682C184.649 25.5682 183.698 25.3447 182.853 24.8977C182.009 24.4507 181.343 23.8082 180.864 22.9701C180.384 22.1319 180.141 21.1332 180.141 19.9668C180.141 18.8074 180.384 17.8016 180.864 16.9635C181.343 16.1393 182.002 15.4968 182.853 15.0498Z" fill="#4B4B4B"/>
<path d="M212.802 14.226C212.136 13.0736 211.227 12.2215 210.068 11.6628C208.909 11.104 207.599 10.8247 206.132 10.8247C204.529 10.8247 203.112 11.132 201.889 11.7466C201.159 12.1168 200.543 12.5847 200.014 13.1435V4.0498H195.72V28.9282H200.014V19.8764C200.014 18.6681 200.228 17.6693 200.651 16.8731C201.073 16.0769 201.674 15.4832 202.454 15.0781C203.234 14.673 204.128 14.4775 205.13 14.4775C206.504 14.4775 207.578 14.8686 208.343 15.6509C209.109 16.4331 209.496 17.6205 209.496 19.2059V28.9282H213.789V18.6681C213.804 16.8592 213.467 15.3785 212.802 14.226Z" fill="#4B4B4B"/>
<path d="M22.774 0.384165C19.1117 2.58059 15.5692 4.99414 12.2491 7.75846C8.2788 11.0656 4.57372 14.6734 2.03235 19.4254C-0.560349 24.2692 -0.868393 29.0713 2.25483 33.6896C3.12762 34.9757 4.18866 36.0864 5.3695 37.0803C4.50526 33.0716 4.47959 29.0963 5.36094 25.121C5.3695 25.0876 5.37805 25.0542 5.38661 25.0208C6.47332 19.4337 10.8715 14.7068 10.8715 14.7068C10.8715 14.7068 6.13105 22.4319 6.82415 30.7165C7.0124 32.9463 7.63704 34.7669 8.24457 36.0196C9.06602 37.5396 11.1539 38.4666 12.1978 38.5C10.5036 35.861 9.10881 32.654 9.55376 27.1922C10.3581 17.3208 15.3125 11.5249 15.3125 11.5249C15.3125 11.5249 10.7945 19.0162 11.3507 27.401C11.6844 32.3951 13.6268 34.4913 15.2868 36.2952C16.8955 38.0407 19.993 38.4165 21.8413 38.3413C21.9525 38.333 22.0552 38.3497 22.1664 38.3497C21.9012 38.0991 17.3319 36.4706 15.7489 29.7143C14.8761 25.9645 14.6964 22.2482 15.4066 18.4483C16.6045 12.0093 19.7534 6.13829 23.0564 0.618005C23.082 0.584599 23.3986 0 23.3986 0C23.3986 0 22.8339 0.342408 22.774 0.384165Z" fill="#0A71C8"/>
<path d="M23.8353 0.822223C26.3 2.80606 28.6433 4.92983 30.7696 7.29232C33.3211 10.1158 35.621 13.1368 36.8794 16.874C38.1725 20.6853 37.7473 24.2331 34.7531 27.2871C33.9199 28.1432 32.9653 28.8429 31.9412 29.452C33.1475 26.6121 33.7116 23.6981 33.5901 20.7017C33.5901 20.677 33.5901 20.6523 33.5901 20.6276C33.5381 16.4295 30.865 12.5194 30.865 12.5194C30.865 12.5194 33.3905 18.6603 31.7242 24.6529C31.2729 26.2663 30.5526 27.534 29.9277 28.3901C29.1032 29.4191 27.3935 29.88 26.6038 29.7977C28.244 28.0444 29.7368 25.8383 30.1534 21.7965C30.8997 14.4868 27.9577 9.73713 27.9577 9.73713C27.9577 9.73713 30.3356 15.6804 28.7648 21.7636C27.8275 25.3855 26.0744 26.7191 24.573 27.8715C23.1149 28.9828 20.7283 28.9499 19.3397 28.6947C19.2616 28.6782 19.1748 28.6782 19.0967 28.67C19.331 28.5136 23.0021 27.7892 25.1284 22.9984C26.3087 20.3395 26.9509 17.6478 26.9336 14.7831C26.9162 9.95115 25.3367 5.33318 23.6096 0.953931C23.5923 0.929236 23.436 0.468262 23.436 0.468262C23.436 0.468262 23.7919 0.789297 23.8353 0.822223Z" fill="#4B4B4B"/>
</svg>
